<svg width="44" height="44" viewBox="0 0 44 44" fill="none" xmlns="http://www.w3.org/2000/svg">
<g opacity="0.5">
<path d="M38.5 22.7777V20.167C38.5 15.7909 36.7616 11.5941 33.6672 8.49973C30.5729 5.40538 26.376 3.66699 22 3.66699C17.6239 3.66699 13.427 5.40538 10.3327 8.49973C7.23834 11.5941 5.49995 15.7909 5.49995 20.167V22.7777C3.57708 23.6244 2.00342 25.1059 1.04242 26.9743C0.0814283 28.8427 -0.208571 30.9844 0.220972 33.0411C0.650516 35.0978 1.77353 36.9444 3.40201 38.272C5.03049 39.5995 7.06559 40.3274 9.16662 40.3337C10.1391 40.3337 11.0717 39.9473 11.7593 39.2597C12.447 38.5721 12.8333 37.6395 12.8333 36.667V25.667C12.8333 24.6945 12.447 23.7619 11.7593 23.0743C11.0717 22.3866 10.1391 22.0003 9.16662 22.0003V20.167C9.16662 16.7634 10.5187 13.4992 12.9254 11.0925C15.3321 8.68574 18.5963 7.33366 22 7.33366C25.4036 7.33366 28.6678 8.68574 31.0745 11.0925C33.4812 13.4992 34.8333 16.7634 34.8333 20.167V22.0003C33.8608 22.0003 32.9282 22.3866 32.2406 23.0743C31.5529 23.7619 31.1666 24.6945 31.1666 25.667V36.667C31.1666 37.6395 31.5529 38.5721 32.2406 39.2597C32.9282 39.9473 33.8608 40.3337 34.8333 40.3337C36.9343 40.3274 38.9694 39.5995 40.5979 38.272C42.2264 36.9444 43.3494 35.0978 43.7789 33.0411C44.2085 30.9844 43.9185 28.8427 42.9575 26.9743C41.9965 25.1059 40.4228 23.6244 38.5 22.7777ZM9.16662 36.667C7.70793 36.667 6.30898 36.0875 5.27753 35.0561C4.24608 34.0246 3.66662 32.6257 3.66662 31.167C3.66662 29.7083 4.24608 28.3094 5.27753 27.2779C6.30898 26.2465 7.70793 25.667 9.16662 25.667V36.667ZM34.8333 36.667V25.667C36.292 25.667 37.6909 26.2465 38.7224 27.2779C39.7538 28.3094 40.3333 29.7083 40.3333 31.167C40.3333 32.6257 39.7538 34.0246 38.7224 35.0561C37.6909 36.0875 36.292 36.667 34.8333 36.667Z" fill="#666666"/>
</g>
</svg>
