<svg width="44" height="37" viewBox="0 0 44 37" fill="none" xmlns="http://www.w3.org/2000/svg">
<path d="M18.3333 7.33333C12.2668 7.33333 7.33333 12.2668 7.33333 18.3333C7.33333 24.3998 12.2668 29.3333 18.3333 29.3333C24.3998 29.3333 29.3333 24.3998 29.3333 18.3333C29.3333 12.2668 24.3998 7.33333 18.3333 7.33333ZM18.3333 25.6667C14.289 25.6667 11 22.3777 11 18.3333C11 14.289 14.289 11 18.3333 11C22.3777 11 25.6667 14.289 25.6667 18.3333C25.6667 22.3777 22.3777 25.6667 18.3333 25.6667ZM34.8333 0H9.16667C4.11217 0 0 4.11217 0 9.16667V27.5C0 32.5545 4.11217 36.6667 9.16667 36.6667H34.8333C39.8878 36.6667 44 32.5545 44 27.5V9.16667C44 4.11217 39.8878 0 34.8333 0ZM40.3333 27.5C40.3333 30.5323 37.8657 33 34.8333 33H9.16667C6.13433 33 3.66667 30.5323 3.66667 27.5V9.16667C3.66667 6.13433 6.13433 3.66667 9.16667 3.66667H34.8333C37.8657 3.66667 40.3333 6.13433 40.3333 9.16667V27.5ZM36.6667 9.16667V19.5782C36.6667 20.8285 36.4173 22.0422 35.926 23.1898L33.7682 28.2223C33.4693 28.919 32.7928 29.3333 32.0833 29.3333C31.8432 29.3333 31.5975 29.2875 31.361 29.1848C30.4315 28.7852 29.9988 27.7072 30.3985 26.7795L32.5563 21.747C32.8515 21.0577 33 20.3298 33 19.5782V9.16667C33 8.15283 33.8213 7.33333 34.8333 7.33333C35.8453 7.33333 36.6667 8.15283 36.6667 9.16667ZM21.0833 18.3333C21.0833 19.8513 19.8513 21.0833 18.3333 21.0833C16.8153 21.0833 15.5833 19.8513 15.5833 18.3333C15.5833 16.8153 16.8153 15.5833 18.3333 15.5833C19.8513 15.5833 21.0833 16.8153 21.0833 18.3333Z" fill="#666666"/>
</svg>
