<svg width="12" height="9" viewBox="0 0 12 9" fill="none" xmlns="http://www.w3.org/2000/svg">
<path d="M11.1456 0.147145L4.23614 7.05614C4.18969 7.10278 4.13448 7.13979 4.07369 7.16504C4.0129 7.19029 3.94772 7.20329 3.88189 7.20329C3.81607 7.20329 3.75089 7.19029 3.6901 7.16504C3.62931 7.13979 3.5741 7.10278 3.52764 7.05614L0.855645 4.38164C0.80919 4.33501 0.753983 4.298 0.693192 4.27275C0.632401 4.2475 0.567222 4.2345 0.501395 4.2345C0.435568 4.2345 0.370389 4.2475 0.309597 4.27275C0.248806 4.298 0.193599 4.33501 0.147145 4.38164C0.100506 4.4281 0.0635 4.48331 0.0382491 4.5441C0.0129983 4.60489 0 4.67007 0 4.73589C0 4.80172 0.0129983 4.8669 0.0382491 4.92769C0.0635 4.98848 0.100506 5.04369 0.147145 5.09015L2.82014 7.76264C3.10212 8.0441 3.48424 8.20217 3.88264 8.20217C4.28105 8.20217 4.66317 8.0441 4.94514 7.76264L11.8541 0.855145C11.9007 0.808699 11.9377 0.753523 11.9629 0.692778C11.9881 0.632033 12.001 0.566912 12.001 0.501145C12.001 0.435377 11.9881 0.370256 11.9629 0.309511C11.9377 0.248766 11.9007 0.19359 11.8541 0.147145C11.8077 0.100506 11.7525 0.0635001 11.6917 0.0382493C11.6309 0.0129984 11.5657 0 11.4999 0C11.4341 0 11.3689 0.0129984 11.3081 0.0382493C11.2473 0.0635001 11.1921 0.100506 11.1456 0.147145Z" fill="white"/>
</svg>
